<svg width="54" height="16" viewBox="0 0 54 16" fill="none" xmlns="http://www.w3.org/2000/svg">
<path d="M12.14 4.82C12.14 5.80667 11.9067 6.64 11.44 7.32C10.9733 7.98667 10.3333 8.49333 9.52 8.84C8.72 9.18667 7.78667 9.36 6.72 9.36H3.72C3.57333 9.36 3.5 9.43333 3.5 9.58V14.58C3.5 14.8867 3.32667 15.04 2.98 15.04H0.42C0.26 15.04 0.146667 15.0067 0.08 14.94C0.0266667 14.8733 0 14.7733 0 14.64V0.58C0 0.326666 0.106667 0.2 0.32 0.2H6.32C7.38667 0.2 8.36 0.366667 9.24 0.700001C10.1333 1.03333 10.84 1.54 11.36 2.22C11.88 2.9 12.14 3.76667 12.14 4.82ZM8.54 4.76C8.54 4.29333 8.44 3.91333 8.24 3.62C8.04 3.31333 7.75333 3.08667 7.38 2.94C7.00667 2.79333 6.58 2.72 6.1 2.72H3.88C3.62667 2.72 3.5 2.83333 3.5 3.06V6.48C3.5 6.73333 3.59333 6.86 3.78 6.86H6.24C6.94667 6.86 7.50667 6.67333 7.92 6.3C8.33333 5.92667 8.54 5.41333 8.54 4.76Z" fill="#15202A"/>
<path d="M17.4769 0.2C17.6902 0.2 17.7969 0.32 17.7969 0.56V14.56C17.7969 14.7333 17.7502 14.86 17.6569 14.94C17.5769 15.0067 17.4435 15.04 17.2569 15.04H14.7369C14.5635 15.04 14.4435 15.0067 14.3769 14.94C14.3235 14.8733 14.2969 14.7667 14.2969 14.62V0.58C14.2969 0.326666 14.4035 0.2 14.6169 0.2H17.4769Z" fill="#15202A"/>
<path d="M32.7255 0.2C32.8988 0.2 32.9855 0.3 32.9855 0.5V14.72C32.9855 14.8133 32.9521 14.8933 32.8855 14.96C32.8188 15.0133 32.7255 15.04 32.6055 15.04H30.5855C30.4788 15.04 30.3921 15.0267 30.3255 15C30.2588 14.9733 30.1788 14.9067 30.0855 14.8L23.7055 5.84C23.6521 5.77333 23.5988 5.74667 23.5455 5.76C23.5055 5.77333 23.4855 5.81333 23.4855 5.88V14.68C23.4988 14.92 23.3655 15.04 23.0855 15.04H21.0055C20.7388 15.04 20.6055 14.9267 20.6055 14.7V0.58C20.6055 0.326666 20.7255 0.2 20.9655 0.2H23.3855C23.5321 0.2 23.6388 0.22 23.7055 0.26C23.7855 0.3 23.8721 0.379999 23.9655 0.5L29.8455 8.88C29.9255 8.98667 29.9921 9.03333 30.0455 9.02C30.1121 9.00667 30.1455 8.94 30.1455 8.82V0.56C30.1455 0.32 30.2655 0.2 30.5055 0.2H32.7255Z" fill="#15202A"/>
<path d="M41.9412 15.24C40.5946 15.24 39.4146 14.9267 38.4012 14.3C37.4012 13.6733 36.6279 12.7933 36.0812 11.66C35.5346 10.5267 35.2612 9.2 35.2612 7.68C35.2612 6.10667 35.5479 4.74667 36.1213 3.6C36.6946 2.45333 37.4946 1.56667 38.5213 0.94C39.5613 0.313333 40.7679 0 42.1413 0C43.2213 0 44.1879 0.206667 45.0413 0.62C45.8946 1.03333 46.5812 1.56 47.1012 2.2C47.6346 2.84 47.9679 3.52 48.1012 4.24C48.1546 4.44 48.1613 4.57333 48.1213 4.64C48.0946 4.70667 48.0146 4.75333 47.8812 4.78L45.2412 5.18C45.1213 5.18 45.0413 5.15333 45.0013 5.1C44.9746 5.04667 44.9479 4.96667 44.9212 4.86C44.8413 4.42 44.6746 4.02 44.4212 3.66C44.1812 3.3 43.8613 3.01333 43.4613 2.8C43.0746 2.57333 42.6079 2.46 42.0612 2.46C41.4079 2.46 40.8413 2.63333 40.3613 2.98C39.8946 3.32667 39.5346 3.87333 39.2812 4.62C39.0412 5.36667 38.9212 6.34667 38.9212 7.56C38.9212 8.84 39.0479 9.86 39.3013 10.62C39.5679 11.38 39.9412 11.9333 40.4212 12.28C40.9146 12.6133 41.5013 12.78 42.1813 12.78C42.6079 12.78 42.9813 12.72 43.3013 12.6C43.6346 12.4667 43.9146 12.2933 44.1413 12.08C44.3813 11.8667 44.5746 11.6267 44.7212 11.36C44.8679 11.08 44.9746 10.7933 45.0413 10.5L45.0812 9.92C45.1346 9.72 45.0679 9.62 44.8813 9.62H42.4613C42.3546 9.62 42.2746 9.6 42.2212 9.56C42.1679 9.50667 42.1413 9.41333 42.1413 9.28V7.78C42.1413 7.59333 42.2479 7.5 42.4613 7.5H47.8013C48.0013 7.5 48.1479 7.54667 48.2412 7.64C48.3346 7.72 48.3813 7.83333 48.3813 7.98V14.74C48.3813 14.8333 48.3546 14.9067 48.3013 14.96C48.2479 15.0133 48.1746 15.04 48.0813 15.04H47.4412C47.3346 15.04 47.2412 15.02 47.1613 14.98C47.0812 14.9267 47.0012 14.84 46.9212 14.72L46.3413 13.28C46.3279 13.24 46.3013 13.22 46.2612 13.22C46.2346 13.22 46.1946 13.2533 46.1413 13.32C45.9013 13.6133 45.6012 13.9133 45.2412 14.22C44.8812 14.5133 44.4346 14.76 43.9012 14.96C43.3679 15.1467 42.7146 15.24 41.9412 15.24Z" fill="#15202A"/>
<path d="M53.5803 14.56C53.5803 14.88 53.3936 15.04 53.0203 15.04H50.6603C50.367 15.04 50.2203 14.9 50.2203 14.62V12.08C50.2203 11.84 50.327 11.72 50.5403 11.72H53.2803C53.4803 11.72 53.5803 11.8333 53.5803 12.06V14.56Z" fill="#4C7BF3"/>
</svg>
